<svg width="22" height="23" viewBox="0 0 22 23" fill="none" xmlns="http://www.w3.org/2000/svg">
<path fill-rule="evenodd" clip-rule="evenodd" d="M6.09238 0.0117192H15.9074C17.0161 0.0117032 17.9094 0.0116903 18.6119 0.101704C19.3415 0.195175 19.9554 0.395139 20.4433 0.859816C20.9312 1.32449 21.1412 1.90925 21.2393 2.60406C21.3338 3.27318 21.3338 4.124 21.3338 5.17988V11.0541C21.3338 11.078 21.3338 11.1018 21.3338 11.1256V16.8436C21.3338 17.8994 21.3338 18.7503 21.2393 19.4194C21.1412 20.1142 20.9312 20.6989 20.4433 21.1636C19.9554 21.6283 19.3415 21.8283 18.6119 21.9217C17.9094 22.0117 17.016 22.0117 15.9074 22.0117H4.31327C3.34596 22.0117 2.41827 21.6457 1.73427 20.9943C1.05028 20.3429 0.666017 19.4593 0.666017 18.538L0.666016 5.17984C0.665999 4.12398 0.665986 3.27317 0.760497 2.60406C0.858639 1.90925 1.06859 1.32449 1.55649 0.859816C2.04439 0.395139 2.65836 0.195175 3.38789 0.101704C4.09043 0.0116903 4.98376 0.0117032 6.09238 0.0117192ZM1.88177 15.9489V5.22225C1.88177 4.11397 1.88306 3.34133 1.9654 2.75843C2.04536 2.1923 2.19162 1.89242 2.41616 1.67857C2.64069 1.46472 2.95555 1.32542 3.54998 1.24926C4.16201 1.17085 4.97325 1.16961 6.1369 1.16961H15.8629C17.0266 1.16961 17.8378 1.17085 18.4498 1.24926C19.0443 1.32542 19.3591 1.46472 19.5837 1.67857C19.8082 1.89242 19.9545 2.1923 20.0344 2.75843C20.1168 3.34133 20.118 4.11397 20.118 5.22225V11.0117C20.118 12.12 20.1168 12.8926 20.0344 13.4755C19.9545 14.0417 19.8082 14.3415 19.5837 14.5554C19.3591 14.7692 19.0443 14.9085 18.4498 14.9847C17.8378 15.0631 17.0266 15.0644 15.8629 15.0644H4.31327C3.41383 15.0644 2.54864 15.3808 1.88177 15.9489ZM20.118 15.6342C19.6914 15.9184 19.1877 16.0585 18.6119 16.1323C17.9094 16.2223 17.0161 16.2223 15.9074 16.2222H4.31327C3.6684 16.2222 3.04993 16.4662 2.59394 16.9005C2.13794 17.3348 1.88177 17.9238 1.88177 18.538C1.88177 19.1522 2.13794 19.7412 2.59394 20.1755C3.04993 20.6098 3.6684 20.8538 4.31327 20.8538H15.8629C17.0266 20.8538 17.8378 20.8526 18.4498 20.7742C19.0443 20.698 19.3591 20.5587 19.5837 20.3449C19.8082 20.131 19.9545 19.8311 20.0344 19.265C20.1168 18.6821 20.118 17.9095 20.118 16.8012V15.6342Z" fill="#42D0EF"/>
<rect x="6.74487" y="6.95898" width="9.72602" height="1.15789" rx="0.578947" fill="#42D0EF"/>
</svg>
