<svg width="19" height="18" viewBox="0 0 19 18" fill="none" xmlns="http://www.w3.org/2000/svg">
<path fill-rule="evenodd" clip-rule="evenodd" d="M9.5 0C10.0523 0 10.5 0.447715 10.5 1V10.5858L12.7929 8.29289C13.1834 7.90237 13.8166 7.90237 14.2071 8.29289C14.5976 8.68342 14.5976 9.31658 14.2071 9.70711L10.2071 13.7071C9.81658 14.0976 9.18342 14.0976 8.79289 13.7071L4.79289 9.70711C4.40237 9.31658 4.40237 8.68342 4.79289 8.29289C5.18342 7.90237 5.81658 7.90237 6.20711 8.29289L8.5 10.5858V1C8.5 0.447715 8.94772 0 9.5 0ZM1.5 12C2.05228 12 2.5 12.4477 2.5 13V14C2.5 14.5304 2.71071 15.0391 3.08579 15.4142C3.46086 15.7893 3.96957 16 4.5 16H14.5C15.0304 16 15.5391 15.7893 15.9142 15.4142C16.2893 15.0391 16.5 14.5304 16.5 14V13C16.5 12.4477 16.9477 12 17.5 12C18.0523 12 18.5 12.4477 18.5 13V14C18.5 15.0609 18.0786 16.0783 17.3284 16.8284C16.5783 17.5786 15.5609 18 14.5 18H4.5C3.43913 18 2.42172 17.5786 1.67157 16.8284C0.921427 16.0783 0.5 15.0609 0.5 14V13C0.5 12.4477 0.947715 12 1.5 12Z" fill="#fff"/>
</svg>
