<svg width="55" height="50" viewBox="0 0 55 50" fill="none" xmlns="http://www.w3.org/2000/svg">
<g clip-path="url(#clip0_67_269)">
<path d="M27.5 0L12.0001 1.64397L0 17.8032L27.5 49.9272L55 17.8032L43.0001 1.64397L27.5 0Z" fill="#FDB300"/>
<path d="M0 17.8027L27.5 49.9264L11.1388 17.8027H0ZM43.861 17.8027L27.5 49.9264L54.9998 17.8027H43.861Z" fill="#EB6C00"/>
<path d="M11.1387 17.8027L27.4999 49.9264L43.8611 17.8027H11.1387Z" fill="#FDAD00"/>
<path d="M12 1.64397L11.1387 17.8032L27.4999 0L12 1.64397ZM43.8609 17.8034L42.9998 1.64397L27.4999 0.000215517L43.8609 17.8034Z" fill="#FDD231"/>
<path d="M43.8612 17.804H54.9998L42.9999 1.64453L43.8612 17.804ZM0 17.804H11.1388L12.0001 1.64453L0 17.804Z" fill="#FDAD00"/>
<path d="M27.4999 0L11.1387 17.8032H43.8611L27.4999 0Z" fill="#FEEEB7"/>
</g>
<defs>
<clipPath id="clip0_67_269">
<rect width="55" height="50" fill="white"/>
</clipPath>
</defs>
</svg>
