<svg width="50" height="50" viewBox="0 0 50 50" fill="none" xmlns="http://www.w3.org/2000/svg">
<g clip-path="url(#clip0_67_263)">
<path d="M38.2812 0H11.7188C5.24666 0 0 5.24666 0 11.7188V38.2812C0 44.7533 5.24666 50 11.7188 50H38.2812C44.7533 50 50 44.7533 50 38.2812V11.7188C50 5.24666 44.7533 0 38.2812 0Z" fill="#1D1D1D"/>
<path d="M11.25 34.774V13.3365C11.25 13.1906 11.3125 13.1074 11.4584 13.1074C11.8125 13.1074 12.1459 13.1074 12.625 13.0865C13.125 13.0656 13.6459 13.0656 14.2084 13.0449C14.7709 13.024 15.375 13.024 16.0209 13.0031C16.6666 12.9824 17.2916 12.9824 17.9166 12.9824C19.625 12.9824 21.0416 13.1906 22.2084 13.6281C23.2542 13.9833 24.2078 14.5669 25 15.3365C25.6713 16.0101 26.19 16.82 26.5209 17.7115C26.8334 18.5865 27 19.4824 27 20.4199C27 22.2115 26.5834 23.6906 25.75 24.8574C24.9166 26.024 23.75 26.899 22.3959 27.399C20.9791 27.9199 19.4166 28.1074 17.7084 28.1074C17.2084 28.1074 16.875 28.1074 16.6666 28.0865C16.4584 28.0656 16.1666 28.0656 15.7709 28.0656V34.7531C15.7916 34.899 15.6875 35.024 15.5416 35.0449H11.5C11.3334 35.0449 11.25 34.9615 11.25 34.774ZM15.7916 17.1281V24.1281C16.0834 24.149 16.3541 24.1699 16.6041 24.1699H17.7084C18.5209 24.1699 19.3334 24.0449 20.1041 23.7949C20.7709 23.6074 21.3541 23.2115 21.8125 22.6906C22.25 22.1699 22.4584 21.4615 22.4584 20.5449C22.478 19.8938 22.3117 19.2507 21.9791 18.6906C21.625 18.149 21.125 17.7324 20.5209 17.5031C19.75 17.1906 18.9166 17.0656 18.0625 17.0865C17.5209 17.0865 17.0416 17.0865 16.6459 17.1074C16.2291 17.0865 15.9375 17.1074 15.7916 17.1281ZM40 22.8574C39.375 22.524 38.7084 22.2949 38 22.149C37.2291 21.9824 36.4584 21.8781 35.6666 21.8781C35.25 21.8574 34.8125 21.9199 34.4166 22.024C34.1459 22.0865 33.9166 22.2324 33.7709 22.4406C33.6666 22.6074 33.6041 22.8156 33.6041 23.0031C33.6041 23.1906 33.6875 23.3781 33.8125 23.5449C34 23.774 34.25 23.9615 34.5209 24.1074C35.0039 24.3576 35.4974 24.587 36 24.7949C37.125 25.1699 38.2084 25.6906 39.2084 26.3156C39.8959 26.7531 40.4584 27.3365 40.8541 28.0449C41.1875 28.7115 41.3541 29.4406 41.3334 30.1906C41.3541 31.1699 41.0625 32.149 40.5209 32.9615C39.9398 33.7932 39.1289 34.4374 38.1875 34.8156C37.1666 35.2531 35.9166 35.4824 34.4166 35.4824C33.4584 35.4824 32.5209 35.399 31.5834 35.2115C30.8486 35.0846 30.134 34.8604 29.4584 34.5449C29.3125 34.4615 29.2084 34.3156 29.2291 34.149V30.524C29.2291 30.4615 29.25 30.3781 29.3125 30.3365C29.375 30.2949 29.4375 30.3156 29.5 30.3574C30.3125 30.8365 31.1666 31.1699 32.0834 31.3781C32.875 31.5865 33.7084 31.6906 34.5416 31.6906C35.3334 31.6906 35.8959 31.5865 36.2709 31.399C36.6041 31.2531 36.8334 30.899 36.8334 30.524C36.8334 30.2324 36.6666 29.9615 36.3334 29.6906C36 29.4199 35.3125 29.1074 34.2916 28.7115C33.2444 28.3425 32.2499 27.8382 31.3334 27.2115C30.6806 26.7462 30.1397 26.1412 29.75 25.4406C29.4166 24.774 29.25 24.0449 29.2709 23.3156C29.2709 22.4199 29.5209 21.5656 29.9791 20.7949C30.5 19.9615 31.2709 19.2949 32.1666 18.8781C33.1459 18.3781 34.375 18.149 35.8541 18.149C36.7084 18.149 37.5834 18.2115 38.4375 18.3365C39.0625 18.4199 39.6666 18.5865 40.2291 18.8156C40.3125 18.8365 40.3959 18.9199 40.4375 19.0031C40.4584 19.0865 40.4791 19.1699 40.4791 19.2531V22.649C40.4791 22.7324 40.4375 22.8156 40.375 22.8574C40.1875 22.899 40.0834 22.899 40 22.8574Z" fill="#31A8FF"/>
</g>
<defs>
<clipPath id="clip0_67_263">
<rect width="50" height="50" fill="white"/>
</clipPath>
</defs>
</svg>
