<svg width="33" height="50" viewBox="0 0 33 50" fill="none" xmlns="http://www.w3.org/2000/svg">
<g clip-path="url(#clip0_67_278)">
<path d="M8.25 50.0007C12.804 50.0007 16.5 46.2673 16.5 41.6673V33.334H8.25C3.696 33.334 0 37.0673 0 41.6673C0 46.2673 3.696 50.0007 8.25 50.0007Z" fill="#0ACF83"/>
<path d="M0 24.9993C0 20.3993 3.696 16.666 8.25 16.666H16.5V33.3327H8.25C3.696 33.3327 0 29.5993 0 24.9993Z" fill="#A259FF"/>
<path d="M0 8.33333C0 3.73333 3.696 0 8.25 0H16.5V16.6667H8.25C3.696 16.6667 0 12.9333 0 8.33333Z" fill="#F24E1E"/>
<path d="M16.5 0H24.75C29.304 0 33 3.73333 33 8.33333C33 12.9333 29.304 16.6667 24.75 16.6667H16.5V0Z" fill="#FF7262"/>
<path d="M33 24.9993C33 29.5993 29.304 33.3327 24.75 33.3327C20.196 33.3327 16.5 29.5993 16.5 24.9993C16.5 20.3993 20.196 16.666 24.75 16.666C29.304 16.666 33 20.3993 33 24.9993Z" fill="#1ABCFE"/>
</g>
<defs>
<clipPath id="clip0_67_278">
<rect width="33" height="50" fill="white"/>
</clipPath>
</defs>
</svg>
