<svg width="20" height="22" viewBox="0 0 20 22" fill="none" xmlns="http://www.w3.org/2000/svg">
<path fill-rule="evenodd" clip-rule="evenodd" d="M18.7521 7.86177V19.5059C18.7521 20.1946 18.1923 20.7529 17.5018 20.7529H13.7509V14.5156C13.7509 13.1381 12.6313 12.0215 11.2503 12.0215H8.74967C7.36863 12.0215 6.24907 13.1381 6.24907 14.5156V20.7529H2.49816C1.80764 20.7529 1.24786 20.1946 1.24786 19.5059V7.86177C1.24786 7.00182 1.69201 6.20253 2.42314 5.74676L9.3373 1.43661C9.74273 1.18387 10.2572 1.18387 10.6626 1.43661L17.5768 5.74676C18.3079 6.20253 18.7521 7.00182 18.7521 7.86177ZM-0.00244141 7.86177C-0.00244141 6.57185 0.663792 5.37292 1.76048 4.68926L8.67464 0.37911C9.48551 -0.12637 10.5144 -0.12637 11.3253 0.379111L18.2394 4.68926C19.3361 5.37292 20.0023 6.57185 20.0023 7.86177V19.5059C20.0023 20.8834 18.8828 22 17.5018 22H2.49816C1.11711 22 -0.00244141 20.8833 -0.00244141 19.5059V7.86177ZM8.74967 13.2685H11.2503C11.9408 13.2685 12.5006 13.8269 12.5006 14.5156V20.7509H7.49937V14.5156C7.49937 13.8269 8.05915 13.2685 8.74967 13.2685Z" fill="#9B3D35"/>
</svg>
