<svg width="316" height="41" viewBox="0 0 316 41" fill="none" xmlns="http://www.w3.org/2000/svg">
<path d="M0.421875 40V35.5566L4.35742 34.7949V8.26172L0.421875 7.5V3.03125H29.8496V13.1621H24.1621L23.832 8.74414H11.7715V18.9258H24.7207V24.6387H11.7715V34.7949L15.7324 35.5566V40H0.421875ZM44.6777 40.5332C42.054 40.5332 39.7604 39.9577 37.7969 38.8066C35.8333 37.6387 34.3099 36.0391 33.2266 34.0078C32.1602 31.9766 31.627 29.6576 31.627 27.0508V26.0352C31.627 23.3099 32.1348 20.8978 33.1504 18.7988C34.166 16.6829 35.5964 15.0241 37.4414 13.8223C39.3034 12.6035 41.4954 12.0026 44.0176 12.0195C46.5059 12.0195 48.5964 12.5104 50.2891 13.4922C51.9818 14.474 53.2682 15.8874 54.1484 17.7324C55.0286 19.5775 55.4688 21.8118 55.4688 24.4355V28.4727H39.3203L39.2695 28.625C39.3711 29.8268 39.6673 30.9017 40.1582 31.8496C40.666 32.7806 41.377 33.5169 42.291 34.0586C43.2051 34.5833 44.3138 34.8457 45.6172 34.8457C46.9714 34.8457 48.2324 34.6764 49.4004 34.3379C50.5853 33.9824 51.7363 33.4661 52.8535 32.7891L54.8594 37.3594C53.7253 38.2734 52.2949 39.0352 50.5684 39.6445C48.8587 40.237 46.8952 40.5332 44.6777 40.5332ZM39.3711 23.5723H48.5371V22.9121C48.5371 21.7949 48.3848 20.8385 48.0801 20.043C47.7923 19.2305 47.3184 18.6042 46.6582 18.1641C46.015 17.724 45.1771 17.5039 44.1445 17.5039C43.1628 17.5039 42.3333 17.7663 41.6562 18.291C40.9792 18.7988 40.446 19.5013 40.0566 20.3984C39.6842 21.2956 39.4303 22.3112 39.2949 23.4453L39.3711 23.5723ZM68.1387 40.5332C65.4134 40.5332 63.2467 39.8053 61.6387 38.3496C60.0306 36.877 59.2266 34.8796 59.2266 32.3574C59.2266 30.6309 59.6921 29.1159 60.623 27.8125C61.571 26.5091 62.959 25.485 64.7871 24.7402C66.6322 23.9954 68.9004 23.623 71.5918 23.623H75.2227V21.5918C75.2227 20.2715 74.8333 19.2051 74.0547 18.3926C73.293 17.5632 72.1419 17.1484 70.6016 17.1484C69.806 17.1484 69.0951 17.25 68.4688 17.4531C67.8424 17.6393 67.2669 17.9102 66.7422 18.2656L66.1582 21.8965H60.8262L60.7246 14.7617C62.1634 13.9492 63.7207 13.2891 65.3965 12.7812C67.0723 12.2734 68.9427 12.0195 71.0078 12.0195C74.5964 12.0195 77.4316 12.8574 79.5137 14.5332C81.5957 16.1921 82.6367 18.5703 82.6367 21.668V32.9922C82.6367 33.3646 82.6367 33.737 82.6367 34.1094C82.6536 34.4648 82.6875 34.8118 82.7383 35.1504L85.6074 35.5566V40H76.416C76.2298 39.526 76.0436 39.0182 75.8574 38.4766C75.6712 37.9349 75.5358 37.3932 75.4512 36.8516C74.571 37.9688 73.5299 38.8659 72.3281 39.543C71.1432 40.2031 69.7467 40.5332 68.1387 40.5332ZM70.1191 35.0488C71.1517 35.0488 72.1335 34.8203 73.0645 34.3633C73.9954 33.8893 74.7148 33.2715 75.2227 32.5098V28.168H71.5664C69.9414 28.168 68.7057 28.5404 67.8594 29.2852C67.0299 30.0299 66.6152 30.9271 66.6152 31.9766C66.6152 32.9583 66.9199 33.7201 67.5293 34.2617C68.1556 34.7865 69.0189 35.0488 70.1191 35.0488ZM98.125 40.5332C95.569 40.5332 93.597 39.8307 92.209 38.4258C90.8379 37.0208 90.1523 34.7949 90.1523 31.748V17.7324H86.3691V12.5273H90.1523V5.79883H97.541V12.5273H102.594V17.7324H97.541V31.7227C97.541 32.7891 97.7611 33.5508 98.2012 34.0078C98.6582 34.4648 99.276 34.6934 100.055 34.6934C100.478 34.6934 100.918 34.668 101.375 34.6172C101.849 34.5495 102.255 34.4818 102.594 34.4141L103.229 39.7715C102.467 39.9915 101.637 40.1693 100.74 40.3047C99.86 40.457 98.9883 40.5332 98.125 40.5332ZM117.676 40.5332C114.781 40.5332 112.505 39.6191 110.846 37.791C109.204 35.946 108.383 33.0853 108.383 29.209V17.7578L105.361 16.9961V12.5273H108.383H115.797V29.2598C115.797 31.2233 116.135 32.6367 116.812 33.5C117.507 34.3464 118.548 34.7695 119.936 34.7695C121.036 34.7695 122.009 34.5579 122.855 34.1348C123.702 33.6947 124.396 33.0768 124.938 32.2812V17.7578L121.662 16.9961V12.5273H124.938H132.352V34.7949L135.652 35.5566V40H125.852L125.344 36.5215C124.48 37.8079 123.397 38.7982 122.094 39.4922C120.79 40.1862 119.318 40.5332 117.676 40.5332ZM138.979 40V35.5566L142.533 34.7949V17.7578L138.598 16.9961V12.5273H149.439L149.719 15.9297L149.77 16.5391C150.447 15.0495 151.285 13.9238 152.283 13.1621C153.282 12.4004 154.475 12.0195 155.863 12.0195C156.303 12.0195 156.786 12.0618 157.311 12.1465C157.835 12.2142 158.301 12.3073 158.707 12.4258L157.92 19.2559L154.238 19.0527C153.189 19.002 152.334 19.1797 151.674 19.5859C151.031 19.9922 150.455 20.5762 149.947 21.3379V34.7949L153.502 35.5566V40H138.979ZM173.561 40.5332C170.937 40.5332 168.643 39.9577 166.68 38.8066C164.716 37.6387 163.193 36.0391 162.109 34.0078C161.043 31.9766 160.51 29.6576 160.51 27.0508V26.0352C160.51 23.3099 161.018 20.8978 162.033 18.7988C163.049 16.6829 164.479 15.0241 166.324 13.8223C168.186 12.6035 170.378 12.0026 172.9 12.0195C175.389 12.0195 177.479 12.5104 179.172 13.4922C180.865 14.474 182.151 15.8874 183.031 17.7324C183.911 19.5775 184.352 21.8118 184.352 24.4355V28.4727H168.203L168.152 28.625C168.254 29.8268 168.55 30.9017 169.041 31.8496C169.549 32.7806 170.26 33.5169 171.174 34.0586C172.088 34.5833 173.197 34.8457 174.5 34.8457C175.854 34.8457 177.115 34.6764 178.283 34.3379C179.468 33.9824 180.619 33.4661 181.736 32.7891L183.742 37.3594C182.608 38.2734 181.178 39.0352 179.451 39.6445C177.742 40.237 175.778 40.5332 173.561 40.5332ZM168.254 23.5723H177.42V22.9121C177.42 21.7949 177.268 20.8385 176.963 20.043C176.675 19.2305 176.201 18.6042 175.541 18.1641C174.898 17.724 174.06 17.5039 173.027 17.5039C172.046 17.5039 171.216 17.7663 170.539 18.291C169.862 18.7988 169.329 19.5013 168.939 20.3984C168.567 21.2956 168.313 22.3112 168.178 23.4453L168.254 23.5723ZM200.348 40V35.5566L204.283 34.7949V8.26172L200.348 7.5V3.03125H229.775V13.1621H224.088L223.758 8.74414H211.697V18.9258H224.646V24.6387H211.697V34.7949L215.658 35.5566V40H200.348ZM232.264 40V35.5566L235.844 34.7949V5.62109L231.883 4.85938V0.390625H243.258V34.7949L246.838 35.5566V40H232.264ZM258.467 40.5332C255.742 40.5332 253.575 39.8053 251.967 38.3496C250.359 36.877 249.555 34.8796 249.555 32.3574C249.555 30.6309 250.02 29.1159 250.951 27.8125C251.899 26.5091 253.287 25.485 255.115 24.7402C256.96 23.9954 259.229 23.623 261.92 23.623H265.551V21.5918C265.551 20.2715 265.161 19.2051 264.383 18.3926C263.621 17.5632 262.47 17.1484 260.93 17.1484C260.134 17.1484 259.423 17.25 258.797 17.4531C258.171 17.6393 257.595 17.9102 257.07 18.2656L256.486 21.8965H251.154L251.053 14.7617C252.492 13.9492 254.049 13.2891 255.725 12.7812C257.4 12.2734 259.271 12.0195 261.336 12.0195C264.924 12.0195 267.76 12.8574 269.842 14.5332C271.924 16.1921 272.965 18.5703 272.965 21.668V32.9922C272.965 33.3646 272.965 33.737 272.965 34.1094C272.982 34.4648 273.016 34.8118 273.066 35.1504L275.936 35.5566V40H266.744C266.558 39.526 266.372 39.0182 266.186 38.4766C265.999 37.9349 265.864 37.3932 265.779 36.8516C264.899 37.9688 263.858 38.8659 262.656 39.543C261.471 40.2031 260.075 40.5332 258.467 40.5332ZM260.447 35.0488C261.48 35.0488 262.462 34.8203 263.393 34.3633C264.324 33.8893 265.043 33.2715 265.551 32.5098V28.168H261.895C260.27 28.168 259.034 28.5404 258.188 29.2852C257.358 30.0299 256.943 30.9271 256.943 31.9766C256.943 32.9583 257.248 33.7201 257.857 34.2617C258.484 34.7865 259.347 35.0488 260.447 35.0488ZM278.348 40V35.5566L281.928 34.7949V17.7578L277.967 16.9961V12.5273H289.342V34.7949L292.896 35.5566V40H278.348ZM281.674 6.71289V0.390625H289.342V6.71289H281.674ZM295.943 40V35.5566L299.498 34.7949V17.7578L295.562 16.9961V12.5273H306.404L306.684 15.9297L306.734 16.5391C307.411 15.0495 308.249 13.9238 309.248 13.1621C310.247 12.4004 311.44 12.0195 312.828 12.0195C313.268 12.0195 313.751 12.0618 314.275 12.1465C314.8 12.2142 315.266 12.3073 315.672 12.4258L314.885 19.2559L311.203 19.0527C310.154 19.002 309.299 19.1797 308.639 19.5859C307.995 19.9922 307.42 20.5762 306.912 21.3379V34.7949L310.467 35.5566V40H295.943Z" fill="#1D1D1D"/>
</svg>
