<svg width="24" height="24" viewBox="0 0 24 24" fill="none" xmlns="http://www.w3.org/2000/svg">
<path d="M16.5719 8.02681C16.9997 7.06215 17.1113 5.98688 16.8907 4.95494C16.6701 3.923 16.1287 2.98729 15.344 2.28178C14.5593 1.57627 13.5715 1.13712 12.5219 1.0272C11.4724 0.917287 10.4151 1.14224 9.50118 1.66985C8.5873 2.19747 7.86378 3.0007 7.4342 3.96455C7.00462 4.9284 6.891 6.00346 7.10961 7.03581C7.32821 8.06817 7.86784 9.0049 8.65123 9.7119C9.43463 10.4189 10.4216 10.8599 11.4709 10.9718C12.0557 10.1396 12.815 9.44498 13.6958 8.93635C14.5767 8.42772 15.5578 8.11732 16.5709 8.02681M13.1529 17.9468C13.5815 17.0238 13.8035 16.0184 13.8035 15.0008C13.8035 13.9832 13.5815 12.9778 13.1529 12.0548C13.7745 11.202 14.6499 10.5678 15.6539 10.2428C16.6578 9.91783 17.7389 9.91885 18.7422 10.2457C19.7456 10.5725 20.6198 11.2085 21.2398 12.0624C21.8597 12.9164 22.1936 13.9446 22.1936 14.9998C22.1936 16.0551 21.8597 17.0833 21.2398 17.9372C20.6198 18.7912 19.7456 19.4271 18.7422 19.7539C17.7389 20.0808 16.6578 20.0818 15.6539 19.7568C14.6499 19.4319 13.7745 18.7976 13.1529 17.9448M6.27292 10.0248C6.85768 10.8571 7.61693 11.5519 8.49775 12.0607C9.37857 12.5695 10.3598 12.8801 11.3729 12.9708C11.8005 13.9356 11.9119 15.0109 11.6911 16.0428C11.4703 17.0747 10.9288 18.0103 10.1439 18.7157C9.35896 19.4211 8.37102 19.86 7.32147 19.9697C6.27192 20.0794 5.21457 19.8542 4.3008 19.3263C3.38703 18.7985 2.66368 17.9951 2.23433 17.0311C1.80497 16.0671 1.69162 14.992 1.91049 13.9597C2.12937 12.9274 2.66925 11.9908 3.45284 11.284C4.23644 10.5772 5.22357 10.1364 6.27292 10.0248Z" fill="#644DEE"/>
</svg>
