<svg width="13" height="12" viewBox="0 0 13 12" fill="none" xmlns="http://www.w3.org/2000/svg">
<path d="M2.03125 0.780949C1.70802 0.780949 1.39802 0.904367 1.16946 1.12405C0.940904 1.34374 0.8125 1.64169 0.8125 1.95237V7.41902C0.8125 7.7297 0.940904 8.02765 1.16946 8.24734C1.39802 8.46702 1.70802 8.59044 2.03125 8.59044H3.52083V11.0874C3.52083 11.1931 3.64542 11.255 3.73533 11.1926L7.488 8.59044H10.9688C11.292 8.59044 11.602 8.46702 11.8305 8.24734C12.0591 8.02765 12.1875 7.7297 12.1875 7.41902V1.95237C12.1875 1.64169 12.0591 1.34374 11.8305 1.12405C11.602 0.904367 11.292 0.780949 10.9688 0.780949H2.03125ZM0 1.95237C0 1.43457 0.214006 0.937978 0.594939 0.571837C0.975873 0.205696 1.49253 0 2.03125 0H10.9688C11.5075 0 12.0241 0.205696 12.4051 0.571837C12.786 0.937978 13 1.43457 13 1.95237V7.41902C13 7.93682 12.786 8.43341 12.4051 8.79955C12.0241 9.16569 11.5075 9.37139 10.9688 9.37139H7.75071L4.21092 11.8262C3.58367 12.2609 2.70833 11.8303 2.70833 11.0869V9.37139H2.03125C1.49253 9.37139 0.975873 9.16569 0.594939 8.79955C0.214006 8.43341 0 7.93682 0 7.41902V1.95237Z" fill="white"/>
</svg>
