<svg width="255" height="33" viewBox="0 0 255 33" fill="none" xmlns="http://www.w3.org/2000/svg">
<path d="M0.148438 32.5V28.9111L3.32715 28.2959V6.86523L0.148438 6.25V2.64062H23.917V10.8232H19.3232L19.0566 7.25488H9.31543V15.4785H19.7744V20.0928H9.31543V28.2959L12.5146 28.9111V32.5H0.148438ZM35.8936 32.9307C33.7744 32.9307 31.9219 32.4658 30.3359 31.5361C28.75 30.5928 27.5195 29.3008 26.6445 27.6602C25.7832 26.0195 25.3525 24.1465 25.3525 22.041V21.2207C25.3525 19.0195 25.7627 17.0713 26.583 15.376C27.4033 13.667 28.5586 12.3271 30.0488 11.3564C31.5527 10.3721 33.3232 9.88672 35.3604 9.90039C37.3701 9.90039 39.0586 10.2969 40.4258 11.0898C41.793 11.8828 42.832 13.0244 43.543 14.5146C44.2539 16.0049 44.6094 17.8096 44.6094 19.9287V23.1895H31.5664L31.5254 23.3125C31.6074 24.2832 31.8467 25.1514 32.2432 25.917C32.6533 26.6689 33.2275 27.2637 33.9658 27.7012C34.7041 28.125 35.5996 28.3369 36.6523 28.3369C37.7461 28.3369 38.7646 28.2002 39.708 27.9268C40.665 27.6396 41.5947 27.2227 42.4971 26.6758L44.1172 30.3672C43.2012 31.1055 42.0459 31.7207 40.6514 32.2129C39.2705 32.6914 37.6846 32.9307 35.8936 32.9307ZM31.6074 19.2314H39.0107V18.6982C39.0107 17.7959 38.8877 17.0234 38.6416 16.3809C38.4092 15.7246 38.0264 15.2188 37.4932 14.8633C36.9736 14.5078 36.2969 14.3301 35.4629 14.3301C34.6699 14.3301 34 14.542 33.4531 14.9658C32.9062 15.376 32.4756 15.9434 32.1611 16.668C31.8604 17.3926 31.6553 18.2129 31.5459 19.1289L31.6074 19.2314ZM54.8428 32.9307C52.6416 32.9307 50.8916 32.3428 49.5928 31.167C48.2939 29.9775 47.6445 28.3643 47.6445 26.3271C47.6445 24.9326 48.0205 23.709 48.7725 22.6562C49.5381 21.6035 50.6592 20.7764 52.1357 20.1748C53.626 19.5732 55.458 19.2725 57.6318 19.2725H60.5645V17.6318C60.5645 16.5654 60.25 15.7041 59.6211 15.0479C59.0059 14.3779 58.0762 14.043 56.832 14.043C56.1895 14.043 55.6152 14.125 55.1094 14.2891C54.6035 14.4395 54.1387 14.6582 53.7148 14.9453L53.2432 17.8779H48.9365L48.8545 12.1152C50.0166 11.459 51.2744 10.9258 52.6279 10.5156C53.9814 10.1055 55.4922 9.90039 57.1602 9.90039C60.0586 9.90039 62.3486 10.5771 64.0303 11.9307C65.7119 13.2705 66.5527 15.1914 66.5527 17.6934V26.8398C66.5527 27.1406 66.5527 27.4414 66.5527 27.7422C66.5664 28.0293 66.5938 28.3096 66.6348 28.583L68.9521 28.9111V32.5H61.5283C61.3779 32.1172 61.2275 31.707 61.0771 31.2695C60.9268 30.832 60.8174 30.3945 60.749 29.957C60.0381 30.8594 59.1973 31.584 58.2266 32.1309C57.2695 32.6641 56.1416 32.9307 54.8428 32.9307ZM56.4424 28.501C57.2764 28.501 58.0693 28.3164 58.8213 27.9473C59.5732 27.5645 60.1543 27.0654 60.5645 26.4502V22.9434H57.6113C56.2988 22.9434 55.3008 23.2441 54.6172 23.8457C53.9473 24.4473 53.6123 25.1719 53.6123 26.0195C53.6123 26.8125 53.8584 27.4277 54.3506 27.8652C54.8564 28.2891 55.5537 28.501 56.4424 28.501ZM79.0625 32.9307C76.998 32.9307 75.4053 32.3633 74.2842 31.2285C73.1768 30.0938 72.623 28.2959 72.623 25.835V14.5146H69.5674V10.3105H72.623V4.87598H78.5908V10.3105H82.6719V14.5146H78.5908V25.8145C78.5908 26.6758 78.7686 27.291 79.124 27.6602C79.4932 28.0293 79.9922 28.2139 80.6211 28.2139C80.9629 28.2139 81.3184 28.1934 81.6875 28.1523C82.0703 28.0977 82.3984 28.043 82.6719 27.9883L83.1846 32.3154C82.5693 32.4932 81.8994 32.6367 81.1748 32.7461C80.4639 32.8691 79.7598 32.9307 79.0625 32.9307ZM94.8535 32.9307C92.5156 32.9307 90.6768 32.1924 89.3369 30.7158C88.0107 29.2256 87.3477 26.915 87.3477 23.7842V14.5352L84.9072 13.9199V10.3105H87.3477H93.3359V23.8252C93.3359 25.4111 93.6094 26.5527 94.1562 27.25C94.7168 27.9336 95.5576 28.2754 96.6787 28.2754C97.5674 28.2754 98.3535 28.1045 99.0371 27.7627C99.7207 27.4072 100.281 26.9082 100.719 26.2656V14.5352L98.0732 13.9199V10.3105H100.719H106.707V28.2959L109.373 28.9111V32.5H101.457L101.047 29.6904C100.35 30.7295 99.4746 31.5293 98.4219 32.0898C97.3691 32.6504 96.1797 32.9307 94.8535 32.9307ZM112.06 32.5V28.9111L114.931 28.2959V14.5352L111.752 13.9199V10.3105H120.509L120.734 13.0586L120.775 13.5508C121.322 12.3477 121.999 11.4385 122.806 10.8232C123.612 10.208 124.576 9.90039 125.697 9.90039C126.053 9.90039 126.442 9.93457 126.866 10.0029C127.29 10.0576 127.666 10.1328 127.994 10.2285L127.358 15.7451L124.385 15.5811C123.537 15.54 122.847 15.6836 122.313 16.0117C121.794 16.3398 121.329 16.8115 120.919 17.4268V28.2959L123.79 28.9111V32.5H112.06ZM139.991 32.9307C137.872 32.9307 136.02 32.4658 134.434 31.5361C132.848 30.5928 131.617 29.3008 130.742 27.6602C129.881 26.0195 129.45 24.1465 129.45 22.041V21.2207C129.45 19.0195 129.86 17.0713 130.681 15.376C131.501 13.667 132.656 12.3271 134.146 11.3564C135.65 10.3721 137.421 9.88672 139.458 9.90039C141.468 9.90039 143.156 10.2969 144.523 11.0898C145.891 11.8828 146.93 13.0244 147.641 14.5146C148.352 16.0049 148.707 17.8096 148.707 19.9287V23.1895H135.664L135.623 23.3125C135.705 24.2832 135.944 25.1514 136.341 25.917C136.751 26.6689 137.325 27.2637 138.063 27.7012C138.802 28.125 139.697 28.3369 140.75 28.3369C141.844 28.3369 142.862 28.2002 143.806 27.9268C144.763 27.6396 145.692 27.2227 146.595 26.6758L148.215 30.3672C147.299 31.1055 146.144 31.7207 144.749 32.2129C143.368 32.6914 141.782 32.9307 139.991 32.9307ZM135.705 19.2314H143.108V18.6982C143.108 17.7959 142.985 17.0234 142.739 16.3809C142.507 15.7246 142.124 15.2188 141.591 14.8633C141.071 14.5078 140.395 14.3301 139.561 14.3301C138.768 14.3301 138.098 14.542 137.551 14.9658C137.004 15.376 136.573 15.9434 136.259 16.668C135.958 17.3926 135.753 18.2129 135.644 19.1289L135.705 19.2314ZM161.627 32.5V28.9111L164.806 28.2959V6.86523L161.627 6.25V2.64062H185.396V10.8232H180.802L180.535 7.25488H170.794V15.4785H181.253V20.0928H170.794V28.2959L173.993 28.9111V32.5H161.627ZM187.405 32.5V28.9111L190.297 28.2959V4.73242L187.098 4.11719V0.507812H196.285V28.2959L199.177 28.9111V32.5H187.405ZM208.569 32.9307C206.368 32.9307 204.618 32.3428 203.319 31.167C202.021 29.9775 201.371 28.3643 201.371 26.3271C201.371 24.9326 201.747 23.709 202.499 22.6562C203.265 21.6035 204.386 20.7764 205.862 20.1748C207.353 19.5732 209.185 19.2725 211.358 19.2725H214.291V17.6318C214.291 16.5654 213.977 15.7041 213.348 15.0479C212.732 14.3779 211.803 14.043 210.559 14.043C209.916 14.043 209.342 14.125 208.836 14.2891C208.33 14.4395 207.865 14.6582 207.441 14.9453L206.97 17.8779H202.663L202.581 12.1152C203.743 11.459 205.001 10.9258 206.354 10.5156C207.708 10.1055 209.219 9.90039 210.887 9.90039C213.785 9.90039 216.075 10.5771 217.757 11.9307C219.438 13.2705 220.279 15.1914 220.279 17.6934V26.8398C220.279 27.1406 220.279 27.4414 220.279 27.7422C220.293 28.0293 220.32 28.3096 220.361 28.583L222.679 28.9111V32.5H215.255C215.104 32.1172 214.954 31.707 214.804 31.2695C214.653 30.832 214.544 30.3945 214.476 29.957C213.765 30.8594 212.924 31.584 211.953 32.1309C210.996 32.6641 209.868 32.9307 208.569 32.9307ZM210.169 28.501C211.003 28.501 211.796 28.3164 212.548 27.9473C213.3 27.5645 213.881 27.0654 214.291 26.4502V22.9434H211.338C210.025 22.9434 209.027 23.2441 208.344 23.8457C207.674 24.4473 207.339 25.1719 207.339 26.0195C207.339 26.8125 207.585 27.4277 208.077 27.8652C208.583 28.2891 209.28 28.501 210.169 28.501ZM224.627 32.5V28.9111L227.519 28.2959V14.5352L224.319 13.9199V10.3105H233.507V28.2959L236.378 28.9111V32.5H224.627ZM227.313 5.61426V0.507812H233.507V5.61426H227.313ZM238.839 32.5V28.9111L241.71 28.2959V14.5352L238.531 13.9199V10.3105H247.288L247.514 13.0586L247.555 13.5508C248.102 12.3477 248.778 11.4385 249.585 10.8232C250.392 10.208 251.355 9.90039 252.477 9.90039C252.832 9.90039 253.222 9.93457 253.646 10.0029C254.069 10.0576 254.445 10.1328 254.773 10.2285L254.138 15.7451L251.164 15.5811C250.316 15.54 249.626 15.6836 249.093 16.0117C248.573 16.3398 248.108 16.8115 247.698 17.4268V28.2959L250.569 28.9111V32.5H238.839Z" fill="white"/>
</svg>
