<svg width="12" height="12" viewBox="0 0 12 12" fill="none" xmlns="http://www.w3.org/2000/svg">
<path fill-rule="evenodd" clip-rule="evenodd" d="M9.60638 0.0588221C9.88543 -0.00918059 10.1781 -0.0183578 10.4617 0.0320016C10.7453 0.0823611 11.0123 0.190905 11.2418 0.34922C11.4714 0.507534 11.6575 0.711368 11.7856 0.944925C11.9137 1.17848 11.9804 1.43548 11.9805 1.69602C11.9807 2.06905 11.8445 2.43174 11.593 2.728C11.3415 3.02426 10.9887 3.23757 10.5892 3.33494C10.1897 3.4323 9.76568 3.4083 9.3828 3.26663C9.16167 3.18481 8.96138 3.06638 8.79147 2.91883L3.70599 5.59255C3.74529 5.73015 3.76543 5.87225 3.76543 6.01558C3.76543 6.15891 3.74529 6.30102 3.70599 6.43862L8.78165 9.10718C8.8331 9.0605 8.88762 9.01646 8.94499 8.97532C9.14207 8.83397 9.36863 8.7297 9.61124 8.66868C9.85385 8.60766 10.1076 8.59114 10.3574 8.62009C10.6072 8.64904 10.848 8.72288 11.0656 8.83723C11.2832 8.95158 11.4731 9.10412 11.6241 9.28582C11.7751 9.46751 11.8842 9.67467 11.9447 9.89502C12.0053 10.1154 12.0162 10.3444 11.9768 10.5687C11.9374 10.7929 11.8485 11.0077 11.7153 11.2004C11.4563 11.5751 11.0455 11.844 10.5701 11.9502C10.0947 12.0564 9.59205 11.9914 9.16893 11.769C8.74582 11.5466 8.4355 11.1844 8.30385 10.7592C8.21806 10.4821 8.21255 10.1925 8.28394 9.91704L3.18844 7.23806C3.01852 7.38549 2.81824 7.50381 2.59716 7.58554C2.2144 7.72703 1.79059 7.75096 1.39123 7.65362C0.991869 7.55629 0.639201 7.3431 0.387733 7.04702C0.136265 6.75094 0 6.38845 0 6.01558C0 5.64271 0.136265 5.28023 0.387733 4.98415C0.639201 4.68807 0.991869 4.47488 1.39123 4.37754C1.79059 4.2802 2.2144 4.30413 2.59716 4.44563C2.81824 4.52735 3.01852 4.64568 3.18844 4.79311L8.27432 2.11919C8.24589 2.01947 8.2275 1.91731 8.21957 1.81395C8.19962 1.55404 8.24635 1.29348 8.35613 1.05246C8.46591 0.811446 8.63579 0.596451 8.8526 0.424139C9.06941 0.251826 9.32734 0.126825 9.60638 0.0588221ZM10.2632 0.940117C10.1343 0.917226 10.0013 0.921398 9.87443 0.952308C9.74759 0.983219 9.63035 1.04004 9.5318 1.11836C9.43325 1.19669 9.35603 1.29441 9.30613 1.40396C9.25623 1.51351 9.23499 1.63195 9.24406 1.75009C9.25312 1.86824 9.29225 1.98291 9.3584 2.08523C9.45312 2.23173 9.59876 2.34601 9.7728 2.4104C9.94683 2.4748 10.1396 2.48571 10.3212 2.44145C10.5028 2.39719 10.6631 2.30024 10.7775 2.16557C10.8918 2.03091 10.9537 1.86605 10.9536 1.69649C10.9535 1.57806 10.9232 1.46124 10.865 1.35508C10.8067 1.24892 10.7222 1.15627 10.6178 1.08431C10.5135 1.01235 10.3921 0.963008 10.2632 0.940117ZM2.20746 5.30197C2.03348 5.23765 1.84084 5.22678 1.65931 5.27102C1.47779 5.31526 1.31748 5.41217 1.20318 5.54675C1.08887 5.68133 1.02694 5.8461 1.02694 6.01558C1.02694 6.18507 1.08887 6.34984 1.20318 6.48442C1.31748 6.619 1.47779 6.7159 1.65931 6.76015C1.84084 6.80439 2.03348 6.79352 2.20746 6.7292C2.38145 6.66488 2.52708 6.55071 2.62186 6.40432C2.69824 6.28634 2.7385 6.15219 2.7385 6.01558C2.7385 5.87898 2.69824 5.74483 2.62186 5.62684C2.52708 5.48046 2.38145 5.36628 2.20746 5.30197ZM10.2264 9.53811C10.1129 9.52494 9.99754 9.53245 9.88726 9.56019C9.77699 9.58792 9.67401 9.63532 9.58442 9.69957C9.49483 9.76383 9.42046 9.84363 9.36571 9.93425C9.25924 10.1105 9.23316 10.3172 9.293 10.5104C9.35284 10.7037 9.49389 10.8684 9.68622 10.9694C9.87854 11.0705 10.107 11.1 10.3231 11.0518C10.5392 11.0035 10.7259 10.8813 10.8436 10.711C10.9042 10.6234 10.9446 10.5257 10.9625 10.4238C10.9804 10.3219 10.9755 10.2178 10.9479 10.1176C10.9204 10.0175 10.8709 9.9233 10.8022 9.84071C10.7336 9.75812 10.6473 9.68878 10.5484 9.6368C10.4495 9.58483 10.34 9.55126 10.2264 9.53811Z" fill="white"/>
</svg>
