<svg width="21" height="21" viewBox="0 0 21 21" fill="none" xmlns="http://www.w3.org/2000/svg">
<path d="M10.5 5.95455C7.99091 5.95455 5.95455 7.99091 5.95455 10.5C5.95455 13.0091 7.99091 15.0455 10.5 15.0455C13.0091 15.0455 15.0455 13.0091 15.0455 10.5C15.0455 7.99091 13.0091 5.95455 10.5 5.95455ZM1.40909 11.4091H3.22727C3.72727 11.4091 4.13636 11 4.13636 10.5C4.13636 10 3.72727 9.59091 3.22727 9.59091H1.40909C0.909091 9.59091 0.5 10 0.5 10.5C0.5 11 0.909091 11.4091 1.40909 11.4091ZM17.7727 11.4091H19.5909C20.0909 11.4091 20.5 11 20.5 10.5C20.5 10 20.0909 9.59091 19.5909 9.59091H17.7727C17.2727 9.59091 16.8636 10 16.8636 10.5C16.8636 11 17.2727 11.4091 17.7727 11.4091ZM9.59091 1.40909V3.22727C9.59091 3.72727 10 4.13636 10.5 4.13636C11 4.13636 11.4091 3.72727 11.4091 3.22727V1.40909C11.4091 0.909091 11 0.5 10.5 0.5C10 0.5 9.59091 0.909091 9.59091 1.40909ZM9.59091 17.7727V19.5909C9.59091 20.0909 10 20.5 10.5 20.5C11 20.5 11.4091 20.0909 11.4091 19.5909V17.7727C11.4091 17.2727 11 16.8636 10.5 16.8636C10 16.8636 9.59091 17.2727 9.59091 17.7727ZM5.03636 3.75455C4.95226 3.67027 4.85236 3.60341 4.74239 3.55779C4.63241 3.51217 4.51452 3.48869 4.39545 3.48869C4.27639 3.48869 4.1585 3.51217 4.04852 3.55779C3.93855 3.60341 3.83865 3.67027 3.75455 3.75455C3.67027 3.83865 3.60341 3.93855 3.55779 4.04852C3.51217 4.1585 3.48869 4.27639 3.48869 4.39545C3.48869 4.51452 3.51217 4.63241 3.55779 4.74239C3.60341 4.85236 3.67027 4.95226 3.75455 5.03636L4.71818 6C5.07273 6.35455 5.65455 6.35455 6 6C6.34545 5.64545 6.35455 5.06364 6 4.71818L5.03636 3.75455ZM16.2818 15C16.1977 14.9157 16.0978 14.8489 15.9878 14.8032C15.8779 14.7576 15.76 14.7341 15.6409 14.7341C15.5218 14.7341 15.404 14.7576 15.294 14.8032C15.184 14.8489 15.0841 14.9157 15 15C14.9157 15.0841 14.8489 15.184 14.8032 15.294C14.7576 15.404 14.7341 15.5218 14.7341 15.6409C14.7341 15.76 14.7576 15.8779 14.8032 15.9878C14.8489 16.0978 14.9157 16.1977 15 16.2818L15.9636 17.2455C16.3182 17.6 16.9 17.6 17.2455 17.2455C17.3297 17.1614 17.3966 17.0615 17.4422 16.9515C17.4878 16.8415 17.5113 16.7236 17.5113 16.6045C17.5113 16.4855 17.4878 16.3676 17.4422 16.2576C17.3966 16.1476 17.3297 16.0477 17.2455 15.9636L16.2818 15ZM17.2455 5.03636C17.3297 4.95226 17.3966 4.85236 17.4422 4.74239C17.4878 4.63241 17.5113 4.51452 17.5113 4.39545C17.5113 4.27639 17.4878 4.1585 17.4422 4.04852C17.3966 3.93855 17.3297 3.83865 17.2455 3.75455C17.1614 3.67027 17.0615 3.60341 16.9515 3.55779C16.8415 3.51217 16.7236 3.48869 16.6045 3.48869C16.4855 3.48869 16.3676 3.51217 16.2576 3.55779C16.1476 3.60341 16.0477 3.67027 15.9636 3.75455L15 4.71818C14.6455 5.07273 14.6455 5.65455 15 6C15.3545 6.34545 15.9364 6.35455 16.2818 6L17.2455 5.03636ZM6 16.2818C6.08428 16.1977 6.15114 16.0978 6.19676 15.9878C6.24238 15.8779 6.26586 15.76 6.26586 15.6409C6.26586 15.5218 6.24238 15.404 6.19676 15.294C6.15114 15.184 6.08428 15.0841 6 15C5.9159 14.9157 5.816 14.8489 5.70602 14.8032C5.59605 14.7576 5.47815 14.7341 5.35909 14.7341C5.24003 14.7341 5.12214 14.7576 5.01216 14.8032C4.90218 14.8489 4.80229 14.9157 4.71818 15L3.75455 15.9636C3.4 16.3182 3.4 16.9 3.75455 17.2455C4.10909 17.5909 4.69091 17.6 5.03636 17.2455L6 16.2818Z" fill="white"/>
</svg>
