<svg width="14" height="14" viewBox="0 0 14 14" fill="none" xmlns="http://www.w3.org/2000/svg">
<g clip-path="url(#clip0_67_228)">
<path fill-rule="evenodd" clip-rule="evenodd" d="M2.67604 0.0195326C2.38042 0.0192402 2.08961 0.0942664 1.83104 0.237533C1.56586 0.372694 1.34247 0.57747 1.1848 0.829912C1.02714 1.08235 0.941142 1.37294 0.936035 1.67053V12.3475C0.941142 12.6451 1.02714 12.9357 1.1848 13.1882C1.34247 13.4406 1.56586 13.6454 1.83104 13.7805C2.0943 13.9268 2.39101 14.0022 2.69215 13.9994C2.99329 13.9966 3.28854 13.9156 3.54904 13.7645L12.179 8.42653C12.4454 8.29232 12.6692 8.08677 12.8255 7.83281C12.9819 7.57885 13.0646 7.28645 13.0645 6.98822C13.0644 6.69 12.9814 6.39766 12.8249 6.1438C12.6684 5.88995 12.4445 5.68456 12.178 5.55053L3.54804 0.252533C3.28292 0.0995167 2.98214 0.0191459 2.67604 0.0195326Z" fill="white"/>
</g>
<defs>
<clipPath id="clip0_67_228">
<rect width="14" height="14" fill="white"/>
</clipPath>
</defs>
</svg>
