<svg width="22" height="17" viewBox="0 0 22 17" fill="none" xmlns="http://www.w3.org/2000/svg">
<path fill-rule="evenodd" clip-rule="evenodd" d="M3.02778 1.15458H18.9722C19.6012 1.15458 20.1111 1.66625 20.1111 2.29743V13.726C20.1111 14.3572 19.6012 14.8689 18.9722 14.8689H3.02778C2.39879 14.8689 1.88889 14.3572 1.88889 13.726V2.29743C1.88889 1.66625 2.39879 1.15458 3.02778 1.15458ZM0.75 2.29743C0.75 1.03507 1.7698 0.0117188 3.02778 0.0117188H18.9722C20.2302 0.0117188 21.25 1.03507 21.25 2.29743V13.726C21.25 14.9884 20.2302 16.0117 18.9722 16.0117H3.02778C1.7698 16.0117 0.75 14.9884 0.75 13.726V2.29743ZM4.56933 3.03659C4.34695 2.81343 3.9864 2.81343 3.76402 3.03659C3.54163 3.25974 3.54163 3.62155 3.76402 3.84471L7.91619 8.01135L3.764 12.178C3.54162 12.4012 3.54162 12.763 3.764 12.9861C3.98638 13.2093 4.34693 13.2093 4.56931 12.9861L8.72151 8.81948L8.98672 9.08561C10.0986 10.2014 11.9014 10.2014 13.0133 9.08561L13.2785 8.81948L17.4307 12.9861C17.6531 13.2093 18.0136 13.2093 18.236 12.9861C18.4584 12.763 18.4584 12.4012 18.236 12.178L14.0838 8.01136L18.236 3.84471C18.4584 3.62155 18.4584 3.25974 18.236 3.03659C18.0136 2.81343 17.6531 2.81343 17.4307 3.03659L12.8999 7.58312C12.8915 7.59065 12.8832 7.59847 12.8751 7.60659C12.867 7.61471 12.8592 7.62301 12.8517 7.63148L12.208 8.27748C11.5408 8.94696 10.4592 8.94695 9.79203 8.27748L9.14816 7.63137C9.14069 7.62294 9.13293 7.61467 9.12487 7.60659C9.11682 7.5985 9.10858 7.59071 9.10017 7.58322L4.56933 3.03659Z" fill="#00E016"/>
</svg>
