<svg width="44" height="44" viewBox="0 0 44 44" fill="none" xmlns="http://www.w3.org/2000/svg">
<rect width="44" height="44" rx="10" fill="#644DEE" fill-opacity="0.1"/>
<path d="M26.5719 18.0268C26.9997 17.0622 27.1113 15.9869 26.8907 14.9549C26.6701 13.923 26.1287 12.9873 25.344 12.2818C24.5593 11.5763 23.5715 11.1371 22.5219 11.0272C21.4724 10.9173 20.4151 11.1422 19.5012 11.6699C18.5873 12.1975 17.8638 13.0007 17.4342 13.9646C17.0046 14.9284 16.891 16.0035 17.1096 17.0358C17.3282 18.0682 17.8678 19.0049 18.6512 19.7119C19.4346 20.4189 20.4216 20.8599 21.4709 20.9718C22.0557 20.1396 22.815 19.445 23.6958 18.9363C24.5767 18.4277 25.5578 18.1173 26.5709 18.0268M23.1529 27.9468C23.5815 27.0238 23.8035 26.0184 23.8035 25.0008C23.8035 23.9832 23.5815 22.9778 23.1529 22.0548C23.7745 21.202 24.6499 20.5678 25.6539 20.2428C26.6578 19.9178 27.7389 19.9188 28.7422 20.2457C29.7456 20.5725 30.6198 21.2085 31.2398 22.0624C31.8597 22.9164 32.1936 23.9446 32.1936 24.9998C32.1936 26.0551 31.8597 27.0833 31.2398 27.9372C30.6198 28.7912 29.7456 29.4271 28.7422 29.7539C27.7389 30.0808 26.6578 30.0818 25.6539 29.7568C24.6499 29.4319 23.7745 28.7976 23.1529 27.9448M16.2729 20.0248C16.8577 20.8571 17.6169 21.5519 18.4977 22.0607C19.3786 22.5695 20.3598 22.8801 21.3729 22.9708C21.8005 23.9356 21.9119 25.0109 21.6911 26.0428C21.4703 27.0747 20.9288 28.0103 20.1439 28.7157C19.359 29.4211 18.371 29.86 17.3215 29.9697C16.2719 30.0794 15.2146 29.8542 14.3008 29.3263C13.387 28.7985 12.6637 27.9951 12.2343 27.0311C11.805 26.0671 11.6916 24.992 11.9105 23.9597C12.1294 22.9274 12.6692 21.9908 13.4528 21.284C14.2364 20.5772 15.2236 20.1364 16.2729 20.0248Z" fill="#644DEE"/>
</svg>
