<svg xmlns="http://www.w3.org/2000/svg" xmlns:xlink="http://www.w3.org/1999/xlink" viewBox="0 0 395.57 86.03"><defs><style>.cls-1{fill:url(#linear-gradient);}.cls-2{fill:url(#linear-gradient-2);}.cls-3{fill:url(#linear-gradient-3);}.cls-4{fill:url(#linear-gradient-4);}.cls-5{fill:url(#linear-gradient-5);}.cls-6{fill:url(#linear-gradient-6);}.cls-7{fill:url(#linear-gradient-7);}.cls-8{fill:url(#linear-gradient-8);}.cls-9{fill:url(#linear-gradient-9);}.cls-10{fill:url(#linear-gradient-10);}.cls-11{fill:url(#linear-gradient-11);}.cls-12{fill:url(#linear-gradient-12);}.cls-13{fill:url(#linear-gradient-13);}.cls-14{fill:url(#linear-gradient-14);}.cls-15{fill:url(#linear-gradient-15);}.cls-16{fill:url(#linear-gradient-16);}.cls-17{fill:none;}</style><linearGradient id="linear-gradient" x1="-21.01" y1="61.73" x2="402.99" y2="64.55" gradientUnits="userSpaceOnUse"><stop offset="0" stop-color="#5ccae8"/><stop offset="1" stop-color="#3387c8"/></linearGradient><linearGradient id="linear-gradient-2" x1="-21.04" y1="66.82" x2="402.96" y2="69.65" xlink:href="#linear-gradient"/><linearGradient id="linear-gradient-3" x1="-21" y1="61.28" x2="403" y2="64.1" xlink:href="#linear-gradient"/><linearGradient id="linear-gradient-4" x1="-21" y1="60.75" x2="403" y2="63.57" xlink:href="#linear-gradient"/><linearGradient id="linear-gradient-5" x1="-20.95" y1="53.54" x2="403.05" y2="56.37" xlink:href="#linear-gradient"/><linearGradient id="linear-gradient-6" x1="-20.99" y1="59.84" x2="403.01" y2="62.66" xlink:href="#linear-gradient"/><linearGradient id="linear-gradient-7" x1="-20.99" y1="59.97" x2="403.01" y2="62.8" xlink:href="#linear-gradient"/><linearGradient id="linear-gradient-8" x1="-20.99" y1="59.4" x2="403.01" y2="62.22" xlink:href="#linear-gradient"/><linearGradient id="linear-gradient-9" x1="-20.95" y1="53.33" x2="403.05" y2="56.15" xlink:href="#linear-gradient"/><linearGradient id="linear-gradient-10" x1="-20.89" y1="44.58" x2="403.11" y2="47.41" xlink:href="#linear-gradient"/><linearGradient id="linear-gradient-11" x1="-20.9" y1="46.15" x2="403.1" y2="48.97" xlink:href="#linear-gradient"/><linearGradient id="linear-gradient-12" x1="-20.9" y1="45.37" x2="403.1" y2="48.19" xlink:href="#linear-gradient"/><linearGradient id="linear-gradient-13" x1="-20.98" y1="58.62" x2="403.01" y2="61.45" xlink:href="#linear-gradient"/><linearGradient id="linear-gradient-14" x1="-20.9" y1="46.35" x2="403.1" y2="49.18" xlink:href="#linear-gradient"/><linearGradient id="linear-gradient-15" x1="-20.95" y1="53" x2="403.05" y2="55.82" xlink:href="#linear-gradient"/><linearGradient id="linear-gradient-16" x1="-21.04" y1="67.27" x2="402.96" y2="70.1" xlink:href="#linear-gradient"/></defs><title>Asset 20</title><g id="Layer_2" data-name="Layer 2"><g id="Layer_1-2" data-name="Layer 1"><path class="cls-1" d="M70.93,71.87h-.3a16.59,16.59,0,0,1-3.7,3,8.55,8.55,0,0,1-4.24,1,9.13,9.13,0,0,1-4.6-1.18,10.87,10.87,0,0,1-3.48-3.14,14.57,14.57,0,0,1-2.16-4.36,16.31,16.31,0,0,1-.73-4.8,17.1,17.1,0,0,1,.73-4.95A14.43,14.43,0,0,1,54.66,53a11.24,11.24,0,0,1,3.6-3.16A9.75,9.75,0,0,1,63,48.69a8.86,8.86,0,0,1,7.59,3.67h.3l-.39-3.09h12.4v26H70.54Zm-5.83-7A2.89,2.89,0,0,0,67.55,66a3,3,0,0,0,2.55-1.13,4.59,4.59,0,0,0,.83-2.79,3.47,3.47,0,0,0-.93-2.5,3.2,3.2,0,0,0-2.45-1,3,3,0,0,0-2.38,1,3.7,3.7,0,0,0-.91,2.52A4.33,4.33,0,0,0,65.1,64.91Z"/><path class="cls-2" d="M98,49.27l2.89,10.2.74,4H102l.64-4,2.89-10.2h13.28L102.1,86H88.77L95.48,72.7,84.36,49.27Z"/><path class="cls-3" d="M138.46,71.87h-.29a16.81,16.81,0,0,1-3.7,3,8.55,8.55,0,0,1-4.24,1,9.17,9.17,0,0,1-4.61-1.18,11,11,0,0,1-3.48-3.14A14.55,14.55,0,0,1,120,67.21a16.32,16.32,0,0,1-.74-4.8,17.11,17.11,0,0,1,.74-4.95,14.41,14.41,0,0,1,2.2-4.44,11.24,11.24,0,0,1,3.6-3.16,9.81,9.81,0,0,1,4.78-1.17,8.87,8.87,0,0,1,7.6,3.67h.29l-.39-3.09h12.4v26h-12.4Zm-5.83-7A2.91,2.91,0,0,0,135.08,66a3,3,0,0,0,2.55-1.13,4.53,4.53,0,0,0,.83-2.79,3.47,3.47,0,0,0-.93-2.5,3.2,3.2,0,0,0-2.45-1,3,3,0,0,0-2.38,1,3.74,3.74,0,0,0-.9,2.52A4.33,4.33,0,0,0,132.63,64.91Z"/><path class="cls-4" d="M167.28,53.44h.29a18.44,18.44,0,0,1,3.88-3.65,8.15,8.15,0,0,1,4.5-1.1,9.35,9.35,0,0,1,4.1.83,7.57,7.57,0,0,1,2.82,2.28,9.85,9.85,0,0,1,1.59,3.36,15.85,15.85,0,0,1,.51,4.11v16H172.33V62.61a8.11,8.11,0,0,0-.25-2.41,2.15,2.15,0,0,0-.71-.93,2,2,0,0,0-1.2-.34,1.83,1.83,0,0,0-1.17.34,2.19,2.19,0,0,0-.69.93,8.46,8.46,0,0,0-.25,2.41V75.3H155.42v-26h12.35Z"/><path class="cls-5" d="M255.36,35.55H268V58.93h.3l1-2.21,3.92-7.45H288L278.44,62,288.49,75.3h-14.9l-5.29-9.56H268V75.3H255.36Z"/><path class="cls-6" d="M313,61.53c-.06,0-.16-.1-.29-.2a15.07,15.07,0,0,0-1.81-.93,4.69,4.69,0,0,0-1.77-.29,4.76,4.76,0,0,0-3.68,1.37,5.44,5.44,0,0,0-1.27,3.82v10H291.58v-26h12.64l-.29,3.48h.29a8.37,8.37,0,0,1,3.46-3.23,13.57,13.57,0,0,1,5.36-.83Z"/><path class="cls-7" d="M334.22,71.87h-.3a16.81,16.81,0,0,1-3.7,3,8.55,8.55,0,0,1-4.24,1,9.19,9.19,0,0,1-4.61-1.18,10.84,10.84,0,0,1-3.47-3.14,14.57,14.57,0,0,1-2.16-4.36,16.32,16.32,0,0,1-.74-4.8,17.11,17.11,0,0,1,.74-4.95,14.41,14.41,0,0,1,2.2-4.44,11.17,11.17,0,0,1,3.61-3.16,9.74,9.74,0,0,1,4.77-1.17,8.87,8.87,0,0,1,7.6,3.67h.3l-.4-3.09h12.4v26h-12.4Zm-5.84-7A2.92,2.92,0,0,0,330.83,66a3,3,0,0,0,2.55-1.13,4.53,4.53,0,0,0,.84-2.79,3.43,3.43,0,0,0-.94-2.5,3.19,3.19,0,0,0-2.45-1,3,3,0,0,0-2.37,1,3.7,3.7,0,0,0-.91,2.52A4.39,4.39,0,0,0,328.38,64.91Z"/><path class="cls-8" d="M363,53.88h.39a7.21,7.21,0,0,1,2.9-3.77A8.1,8.1,0,0,1,371,48.69a7.63,7.63,0,0,1,4.71,1.44,8,8,0,0,1,2.74,4.09h.3a9.16,9.16,0,0,1,3-4.16,8.12,8.12,0,0,1,4.86-1.37,8,8,0,0,1,6.69,2.94,11.87,11.87,0,0,1,2.27,7.5V75.3H383.32V62.41a7.92,7.92,0,0,0-.32-2.55,1.43,1.43,0,0,0-1.54-.93,1.39,1.39,0,0,0-1.49.93,7.92,7.92,0,0,0-.32,2.55V75.3H367.39V62.41a8.25,8.25,0,0,0-.31-2.55,1.45,1.45,0,0,0-1.55-.93,1.39,1.39,0,0,0-1.49.93,7.92,7.92,0,0,0-.32,2.55V75.3H351.47v-26h11.95Z"/><g id="z3JWFh"><path class="cls-9" d="M5.35,39.18c0,1.5,0,3,0,4.48a1.51,1.51,0,0,0,.49.88q3.46,3.49,7,7a2.82,2.82,0,0,1,.92,2.18c0,6.18,0,12.36,0,18.55,0,1.2-.06,1.27-1.22,1.27-3.19,0-6.38,0-9.56,0-.89,0-1.18-.32-1.18-1.17,0-4,0-8,0-12a1.77,1.77,0,0,0-.62-1.49,3.66,3.66,0,0,1-.25-5.15,3.71,3.71,0,0,1,5.25,0A3.58,3.58,0,0,1,6,58.87a1.85,1.85,0,0,0-.65,1.58c0,2.8,0,5.6,0,8.41,0,.81.22,1.16,1.08,1.1a22.9,22.9,0,0,1,2.87,0c.73,0,.91-.25.91-.94,0-4.78,0-9.56,0-14.34a2.08,2.08,0,0,0-.56-1.31C7.34,51,5,48.73,2.73,46.45a2.85,2.85,0,0,1-1-2.26c.07-3.44,0-6.88,0-10.33,0-.7.06-1.37.81-1.67a1.61,1.61,0,0,1,1.85.6l30.93,31c1.24,1.23,2.46,2.5,3.74,3.69a2.12,2.12,0,0,0,1.31.51,3.57,3.57,0,0,1,3.64,2.52,3.46,3.46,0,0,1-1.53,4.13,3.41,3.41,0,0,1-3.47.16,3.11,3.11,0,0,1-1.93-3,2.64,2.64,0,0,0-.93-2.15Q28,61.36,19.72,53.1L6.4,39.81c-.26-.26-.53-.5-.8-.75Zm35.35,31a1.3,1.3,0,0,0-1.36,1.3,1.35,1.35,0,0,0,1.26,1.41,1.48,1.48,0,0,0,1.46-1.36A1.41,1.41,0,0,0,40.7,70.2ZM4.94,56.28a1.35,1.35,0,1,0-1.36,1.29A1.3,1.3,0,0,0,4.94,56.28Z"/><path class="cls-10" d="M41.76,59.6c0-1.75,0-3.3,0-4.85,0-.34-.38-.71-.66-1-2.31-2.34-4.65-4.63-6.93-7a2.48,2.48,0,0,1-.67-1.56c0-6.18,0-12.36,0-18.54,0-1.64,0-1.65,1.62-1.65,3,0,6.11,0,9.17,0,.85,0,1.11.29,1.1,1.11,0,3.92,0,7.84,0,11.76a2.16,2.16,0,0,0,.75,1.82,3.53,3.53,0,0,1,0,5.19,3.66,3.66,0,0,1-5.09-.19,3.75,3.75,0,0,1,.24-5.17,2,2,0,0,0,.61-1.26c.05-3,0-5.93,0-8.89,0-.63-.24-.85-.84-.83-1.08,0-2.17,0-3.25,0-.59,0-.78.24-.78.8,0,4.87,0,9.75,0,14.62a1.9,1.9,0,0,0,.54,1.15c2.34,2.39,4.71,4.74,7.1,7.09A2.24,2.24,0,0,1,45.33,54c0,3.57,0,7.14,0,10.71,0,.72-.09,1.36-.84,1.65s-1.26-.13-1.76-.63Q25.55,48.51,8.35,31.31a2.28,2.28,0,0,0-1.82-.81,3.45,3.45,0,0,1-3.65-3.56,3.59,3.59,0,1,1,7.17.08,2.06,2.06,0,0,0,.71,1.73Q24.1,42,37.38,55.36q1.78,1.8,3.59,3.57C41.16,59.12,41.39,59.29,41.76,59.6Zm-35.25-34a1.35,1.35,0,0,0-1.37,1.29,1.3,1.3,0,0,0,1.33,1.41A1.35,1.35,0,0,0,7.81,27,1.39,1.39,0,0,0,6.51,25.59ZM43.58,40.88a1.34,1.34,0,0,0-1.35,1.31,1.33,1.33,0,1,0,1.35-1.31Z"/></g><path class="cls-11" d="M242.8,54.51l-11-25.93-.37-.87a3.32,3.32,0,0,0,1-2.37,3.1,3.1,0,0,0-.22-1.18h0A3.41,3.41,0,0,0,229,22h0a3.46,3.46,0,0,0-2.57,1.25,3.33,3.33,0,0,0-.77,2.13A3.27,3.27,0,0,0,226,26.8a3.22,3.22,0,0,0,1.45,1.51,3.32,3.32,0,0,0,.64.27,2.94,2.94,0,0,0,.67.12l.82,1.95,10.14,23.86.86,2,1.16,2.74.84,2,5.34,12.54H251ZM230.61,25.84h0A1.68,1.68,0,0,1,229,27a1.65,1.65,0,0,1-.95-.3,2.09,2.09,0,0,1-.28-.24h0a1.64,1.64,0,0,1-.44-1h0v-.08A1.69,1.69,0,0,1,229,23.66a1.24,1.24,0,0,1,.27,0,1.68,1.68,0,0,1,1.41,1.65A1.69,1.69,0,0,1,230.61,25.84Z"/><path class="cls-12" d="M231,54.51l-5.68-13.36-1.58-3.71-1.51,3.74-5.37,13.33-.82,2h15.81Zm-11.06,0,3.87-9.61,4.09,9.61Z"/><polygon class="cls-13" points="233.85 61.25 214.13 61.25 214.93 59.25 233 59.25 233.85 61.25"/><path class="cls-14" d="M221.4,23.45a3.44,3.44,0,0,0-1-1,3.21,3.21,0,0,0-1.44-.49l-.34,0a3.39,3.39,0,0,0-3.34,2.83,3.24,3.24,0,0,0,0,.55,3.37,3.37,0,0,0,1.21,2.59l-.28.65L197.05,73.79h3.1l17.91-42.41,1.14-2.72,0-.08h.31l.36-.13a3.39,3.39,0,0,0,1.49-5Zm-2.15,3.43h0a1.51,1.51,0,0,1-.65.14,1.66,1.66,0,0,1-1.44-.83,1.74,1.74,0,0,1-.23-.85,1.67,1.67,0,0,1,1-1.54.79.79,0,0,1,.26-.08,1.23,1.23,0,0,1,.39-.06,1.68,1.68,0,0,1,.66,3.22Z"/><path class="cls-15" d="M245.35,73.79h-.06L242,66l-.86-2L240,61.25l-.85-2L238,56.51l-.85-2-8.81-20.73-1.58-3.72-.63-1.48h-4l-1.07,2.54-1.55,3.66-8.32,19.73L203,73.79v0l-.41,0a3.38,3.38,0,0,0,0,6.76,3.85,3.85,0,0,0,.69-.06A3.4,3.4,0,0,0,206,77.17a3.32,3.32,0,0,0-.53-1.82l.66-1.56,5.3-12.54.84-2,1.16-2.74.84-2,6.79-16.07,1.54-3.66,1.5-3.55,1.09,2.59,1.59,3.71h0l7.21,17,.85,2L236,59.25l.86,2L238,64l.85,2,3.32,7.8.53,1.26a3.39,3.39,0,0,0,2.34,5.49h.29a3.38,3.38,0,0,0,0-6.76Zm-42.73,5a1.68,1.68,0,0,1-1.68-1.67,1.66,1.66,0,0,1,1.36-1.63,1.12,1.12,0,0,1,.32,0,1.67,1.67,0,1,1,0,3.34Zm42.73,0a1.68,1.68,0,0,1-1.26-.57h0a1.76,1.76,0,0,1-.39-1v-.14a1.67,1.67,0,0,1,2.41-1.5h0a1.63,1.63,0,0,1,.94,1.49,1.72,1.72,0,0,1-.08.52A1.68,1.68,0,0,1,245.35,78.84Z"/><polygon class="cls-16" points="239.18 73.79 236.08 73.79 232.76 65.99 215.29 65.99 212.14 73.79 209.06 73.79 212.21 65.99 213.02 63.99 235.01 63.99 235.87 65.99 239.18 73.79"/><line class="cls-17" x1="205.86" x2="200.7"/><polyline class="cls-17" points="210.09 0 213.46 0 214.02 0"/></g></g></svg>