<svg width="16" height="14" viewBox="0 0 16 14" fill="none" xmlns="http://www.w3.org/2000/svg">
<path d="M14.8811 3.3224L8.64643 0.154279C8.44523 0.0527748 8.2241 0 8 0C7.7759 0 7.55477 0.0527748 7.35357 0.154279L1.11893 3.3224C0.783215 3.48993 0.500186 3.75134 0.302285 4.0767C0.104384 4.40205 -0.000379627 4.77817 1.03366e-06 5.16194V11.943C1.03366e-06 13.0773 0.907858 14 2.02393 14H13.9761C15.0921 14 16 13.0773 16 11.943V5.16194C16.0004 4.77817 15.8956 4.40205 15.6977 4.0767C15.4998 3.75134 15.2168 3.48993 14.8811 3.3224ZM7.87071 1.20555C7.91095 1.18525 7.95518 1.17469 8 1.17469C8.04482 1.17469 8.08905 1.18525 8.12928 1.20555L14.1786 4.27854L8.03571 7.40075C7.99547 7.42105 7.95125 7.4316 7.90643 7.4316C7.86161 7.4316 7.81738 7.42105 7.77714 7.40075L1.72679 4.32739L7.87071 1.20555Z" fill="#42D0EF"/>
</svg>
