<svg width="21" height="21" viewBox="0 0 21 21" fill="none" xmlns="http://www.w3.org/2000/svg">
<path d="M10.7397 20.5C7.89562 20.5 5.47777 19.5013 3.48615 17.5039C1.49538 15.5074 0.5 13.083 0.5 10.2307C0.5 8.11697 1.10286 6.17608 2.30859 4.40805C3.51431 2.64003 5.22519 1.36835 7.44123 0.593017C7.70234 0.501449 7.93103 0.477487 8.12729 0.521132C8.32441 0.56392 8.48696 0.64907 8.61496 0.77658C8.74295 0.90409 8.82444 1.06669 8.85943 1.26437C8.89527 1.46377 8.86882 1.673 8.78007 1.89208C8.61453 2.30028 8.49421 2.71576 8.41912 3.13851C8.34489 3.56126 8.30777 3.99985 8.30777 4.45426C8.30777 6.74174 9.10262 8.68306 10.6923 10.2782C12.2829 11.8725 14.2186 12.6697 16.4995 12.6697C17.0951 12.6697 17.6404 12.6064 18.1353 12.4797C18.6302 12.353 19.0513 12.2504 19.3986 12.1716C19.5838 12.1374 19.7545 12.1417 19.9106 12.1845C20.0642 12.2281 20.1879 12.3034 20.2818 12.4104C20.3808 12.5174 20.4478 12.6491 20.4828 12.8057C20.5186 12.9615 20.4985 13.1399 20.4226 13.341C19.8125 15.4377 18.6166 17.1552 16.8349 18.4936C15.054 19.8312 13.0223 20.5 10.7397 20.5Z" fill="#9B3D35"/>
</svg>
