<svg width="22" height="20" viewBox="0 0 22 20" fill="none" xmlns="http://www.w3.org/2000/svg">
<path fill-rule="evenodd" clip-rule="evenodd" d="M14.4167 1.12937H7.58335V3.36402H14.4167V1.12937ZM6.44446 1.12937V3.36402H3.02778C1.7698 3.36402 0.75 4.3648 0.75 5.59931V13.4228V14.5405V16.7758C0.75 18.0103 1.7698 19.0111 3.02778 19.0111H18.9722C20.2302 19.0111 21.25 18.0103 21.25 16.7758V5.59931C21.25 4.3648 20.2302 3.36402 18.9722 3.36402H15.5556V1.12937C15.5556 0.512106 15.0457 0.0117188 14.4167 0.0117188H7.58335C6.95436 0.0117188 6.44446 0.512106 6.44446 1.12937ZM1.88889 14.5405V16.7758C1.88889 17.393 2.39879 17.8934 3.02778 17.8934H18.9722C19.6012 17.8934 20.1111 17.393 20.1111 16.7758V14.5405H16.5973C16.3629 15.1917 15.73 15.6584 14.9861 15.6584C14.2422 15.6584 13.6094 15.1917 13.3749 14.5405H8.62508C8.39062 15.1917 7.75778 15.6584 7.01388 15.6584C6.26998 15.6584 5.63713 15.1917 5.40267 14.5405H1.88889ZM8.62492 13.4228H13.3751C13.6096 12.7718 14.2424 12.3054 14.9861 12.3054C15.7298 12.3054 16.3626 12.7718 16.5972 13.4228H20.1111V5.59931C20.1111 4.98206 19.6012 4.48167 18.9722 4.48167H15.5556V4.48231H6.44446V4.48167H3.02778C2.39879 4.48167 1.88889 4.98206 1.88889 5.59931V13.4228H5.40283C5.6374 12.7718 6.27014 12.3054 7.01388 12.3054C7.75761 12.3054 8.39035 12.7718 8.62492 13.4228ZM14.4167 13.9863V13.9775C14.4191 13.6709 14.6731 13.4231 14.9861 13.4231C15.2997 13.4231 15.554 13.6718 15.5555 13.9791V13.9846C15.554 14.292 15.2997 14.5407 14.9861 14.5407C14.6731 14.5407 14.4191 14.2929 14.4167 13.9863ZM6.44444 13.9858C6.4466 14.2926 6.70072 14.5407 7.01388 14.5407C7.32837 14.5407 7.58332 14.2905 7.58332 13.9819C7.58332 13.6733 7.32837 13.4231 7.01388 13.4231C6.70072 13.4231 6.4466 13.6711 6.44444 13.9779V13.9858Z" fill="#F89D15"/>
</svg>
