<svg width="16" height="21" viewBox="0 0 16 21" fill="none" xmlns="http://www.w3.org/2000/svg">
<path fill-rule="evenodd" clip-rule="evenodd" d="M8.99438 1.01145V7.01145H14.9944V17.0114C14.9944 18.116 14.0989 19.0114 12.9944 19.0114H2.99438C1.88983 19.0114 0.994385 18.116 0.994385 17.0114V3.01145C0.994385 1.90689 1.88983 1.01145 2.99438 1.01145H8.99438ZM9.57324 0.0114452H2.99438C1.33752 0.0114452 -0.00561523 1.35458 -0.00561523 3.01145V17.0114C-0.00561523 18.6683 1.33752 20.0114 2.99438 20.0114H12.9944C14.6512 20.0114 15.9944 18.6683 15.9944 17.0114V6.43259C16.0093 6.35037 16.0099 6.26517 15.9944 6.18131V6.01145L15.7994 5.8165L10.1893 0.206392L9.99438 0.0114452H9.82452C9.74066 -0.00411873 9.65546 -0.00350838 9.57324 0.0114452ZM9.99438 1.42563V6.01145H14.5802L9.99438 1.42563ZM2.99438 11.5114C2.99438 11.2353 3.21826 11.0114 3.49438 11.0114H12.4944C12.7705 11.0114 12.9944 11.2353 12.9944 11.5114C12.9944 11.7876 12.7705 12.0114 12.4944 12.0114H3.49438C3.21826 12.0114 2.99438 11.7876 2.99438 11.5114ZM3.49438 15.0114C3.21826 15.0114 2.99438 15.2353 2.99438 15.5114C2.99438 15.7876 3.21826 16.0114 3.49438 16.0114H12.4944C12.7705 16.0114 12.9944 15.7876 12.9944 15.5114C12.9944 15.2353 12.7705 15.0114 12.4944 15.0114H3.49438ZM4.99438 13.5114C4.99438 13.2353 5.21826 13.0114 5.49438 13.0114H10.4944C10.7705 13.0114 10.9944 13.2353 10.9944 13.5114C10.9944 13.7876 10.7705 14.0114 10.4944 14.0114H5.49438C5.21826 14.0114 4.99438 13.7876 4.99438 13.5114Z" fill="#FF6BF0"/>
</svg>
