<svg width="24" height="20" viewBox="0 0 24 20" fill="none" xmlns="http://www.w3.org/2000/svg">
<path fill-rule="evenodd" clip-rule="evenodd" d="M0 8.64865V2.7027C0 1.9859 0.287337 1.29846 0.7988 0.791603C1.31026 0.284748 2.00396 0 2.72727 0H21.2727C21.996 0 22.6897 0.284748 23.2012 0.791603C23.7127 1.29846 24 1.9859 24 2.7027V8.64865V10.2384C24 10.8354 23.5116 11.3195 22.9091 11.3195C22.3066 11.3195 21.8182 10.8354 21.8182 10.2384V8.64865H2.18182V16.7568C2.18182 16.9001 2.23929 17.0376 2.34158 17.139C2.44387 17.2403 2.58261 17.2973 2.72727 17.2973H12.5455C13.1479 17.2973 13.6364 17.7813 13.6364 18.3784C13.6364 18.9754 13.1479 19.4595 12.5455 19.4595H2.72727C2.00395 19.4595 1.31026 19.1747 0.7988 18.6679C0.287337 18.161 0 17.4736 0 16.7568V8.64865ZM19.6364 11.3519C20.2388 11.3519 20.7273 11.8359 20.7273 12.433V14.5951H22.9091C23.5116 14.5951 24 15.0791 24 15.6762C24 16.2733 23.5116 16.7573 22.9091 16.7573H20.7273V18.9194C20.7273 19.5165 20.2388 20.0005 19.6364 20.0005C19.0339 20.0005 18.5454 19.5165 18.5454 18.9194V16.7573H16.3636C15.7611 16.7573 15.2727 16.2733 15.2727 15.6762C15.2727 15.0791 15.7611 14.5951 16.3636 14.5951H18.5454V12.433C18.5454 11.8359 19.0339 11.3519 19.6364 11.3519ZM4.36364 3.2437C3.76114 3.2437 3.27273 3.72772 3.27273 4.32478C3.27273 4.92185 3.76114 5.40586 4.36364 5.40586C4.96613 5.40586 5.45454 4.92185 5.45454 4.32478C5.45454 3.72772 4.96613 3.2437 4.36364 3.2437ZM6.54546 4.32478C6.54546 3.72772 7.03388 3.2437 7.63637 3.2437C8.23886 3.2437 8.72728 3.72772 8.72728 4.32478C8.72728 4.92185 8.23886 5.40586 7.63637 5.40586C7.03388 5.40586 6.54546 4.92185 6.54546 4.32478Z" fill="#42D0EF"/>
</svg>
