<svg width="24" height="24" viewBox="0 0 24 24" fill="none" xmlns="http://www.w3.org/2000/svg">
<path d="M7.34755 8.70039L8.29675 2.40039H3.35995L1.29715 7.80039C1.23355 7.99239 1.19995 8.19159 1.19995 8.40039C1.19995 9.72519 2.57995 10.8004 4.28515 10.8004C5.85715 10.8004 7.15675 9.88359 7.34755 8.70039ZM12 10.8004C13.704 10.8004 15.0852 9.72519 15.0852 8.40039C15.0852 8.35119 15.0816 8.30199 15.0792 8.25519L14.4684 2.40039H9.53155L8.91955 8.25039C8.91671 8.30034 8.91511 8.35036 8.91475 8.40039C8.91475 9.72519 10.296 10.8004 12 10.8004ZM18 12.0556V16.8004H5.99995V12.0628C5.47435 12.2524 4.89595 12.3604 4.28515 12.3604C4.05115 12.3604 3.82435 12.3328 3.59995 12.3016V19.9204C3.59995 20.8444 4.35475 21.6004 5.27755 21.6004H18.72C19.644 21.6004 20.4 20.8432 20.4 19.9204V12.3028C20.1731 12.3376 19.9442 12.3573 19.7148 12.3616C19.1296 12.361 18.5492 12.2574 18 12.0556ZM22.704 7.80039L20.6388 2.40039H15.7032L16.6512 8.69079C16.836 9.87879 18.1356 10.8004 19.7148 10.8004C21.4188 10.8004 22.8 9.72519 22.8 8.40039C22.8 8.19159 22.7664 7.99239 22.704 7.80039Z" fill="#9B3D35"/>
</svg>
